<svg width="221" height="116" viewBox="0 0 221 116" fill="none" xmlns="http://www.w3.org/2000/svg">
<path d="M52.6548 0.963513L60.9822 4.26802L45.4731 41.3225H77.1522V48.9889H35.163V42.1156L52.6548 0.963513ZM69.9264 25.0643V63H60.4535L60.3653 42.7324L61.6431 25.0643H69.9264ZM109.017 0.963513C115.832 0.963513 120.987 3.70992 124.482 9.20274C127.978 14.6955 129.725 22.4648 129.725 32.5105C129.725 42.5855 127.978 50.3842 124.482 55.9063C120.987 61.4285 115.832 64.1896 109.017 64.1896C102.173 64.1896 97.0035 61.4285 93.5081 55.9063C90.042 50.3842 88.309 42.5855 88.309 32.5105C88.309 22.4648 90.042 14.6955 93.5081 9.20274C97.0035 3.70992 102.173 0.963513 109.017 0.963513ZM109.017 8.49777C105.522 8.49777 102.834 10.363 100.954 14.0934C99.0743 17.7944 98.1344 23.9335 98.1344 32.5105C98.1344 37.0927 98.3253 40.9406 98.7072 44.0542C99.1184 47.1384 99.7499 49.6058 100.602 51.4563C101.483 53.3068 102.614 54.6433 103.994 55.4657C105.375 56.2588 107.049 56.6554 109.017 56.6554C111.367 56.6554 113.35 55.8623 114.965 54.2761C116.581 52.6606 117.8 50.0757 118.622 46.5216C119.474 42.9674 119.9 38.297 119.9 32.5105C119.9 26.4889 119.533 21.7305 118.799 18.235C118.094 14.7102 116.948 12.2135 115.362 10.7448C113.776 9.24679 111.661 8.49777 109.017 8.49777ZM117.212 10.5686L119.768 17.486L101.615 54.5405L98.3547 48.9449L117.212 10.5686ZM158.33 0.963513L166.657 4.26802L151.148 41.3225H182.827V48.9889H140.838V42.1156L158.33 0.963513ZM175.602 25.0643V63H166.129L166.04 42.7324L167.318 25.0643H175.602ZM4.29079 87.4598V94.5397H12.8208V97.5422H4.29079V104.997H14.6803V108H0.33287V84.4572H14.4927L14.0491 87.4598H4.29079ZM26.5237 105.526C27.7179 105.526 28.6676 105.316 29.3727 104.895C30.0779 104.463 30.4304 103.871 30.4304 103.121C30.4304 102.632 30.3281 102.217 30.1234 101.875C29.9186 101.523 29.5092 101.204 28.895 100.92C28.2809 100.624 27.3483 100.317 26.0972 99.9989C24.9144 99.6918 23.8737 99.3278 22.9752 98.907C22.0881 98.4862 21.4 97.9403 20.911 97.2693C20.4219 96.5982 20.1774 95.7339 20.1774 94.6761C20.1774 93.6412 20.4674 92.737 21.0474 91.9636C21.6275 91.1902 22.4577 90.5874 23.5382 90.1552C24.63 89.7231 25.9095 89.507 27.3767 89.507C28.8894 89.507 30.2087 89.706 31.3346 90.1041C32.4606 90.5021 33.4216 90.9969 34.2178 91.5883L32.6141 93.9937C31.909 93.5274 31.1356 93.1464 30.294 92.8507C29.4637 92.555 28.5254 92.4072 27.4791 92.4072C26.2621 92.4072 25.3864 92.5891 24.8518 92.9531C24.3286 93.317 24.0671 93.8004 24.0671 94.4032C24.0671 94.8467 24.1979 95.2221 24.4594 95.5291C24.7324 95.8248 25.1987 96.1035 25.8584 96.3651C26.518 96.6153 27.4506 96.911 28.6562 97.2522C29.8277 97.5707 30.8456 97.946 31.7099 98.3782C32.5857 98.8103 33.2624 99.3847 33.7401 100.101C34.2291 100.806 34.4737 101.728 34.4737 102.865C34.4737 104.161 34.0983 105.225 33.3477 106.055C32.6084 106.874 31.6303 107.483 30.4134 107.881C29.2078 108.267 27.9112 108.461 26.5237 108.461C24.8518 108.461 23.4074 108.222 22.1905 107.744C20.9735 107.255 19.9499 106.647 19.1197 105.919L21.1498 103.599C21.8549 104.167 22.6625 104.633 23.5723 104.997C24.4822 105.35 25.466 105.526 26.5237 105.526ZM49.1149 105.322C49.9565 105.322 50.7413 105.179 51.4692 104.895C52.197 104.599 52.8908 104.218 53.5505 103.752L55.3247 106.209C54.54 106.88 53.5846 107.426 52.4586 107.846C51.344 108.256 50.1897 108.461 48.9955 108.461C47.153 108.461 45.5778 108.074 44.2698 107.301C42.9619 106.516 41.961 105.418 41.2673 104.008C40.5735 102.598 40.2266 100.954 40.2266 99.0776C40.2266 97.2465 40.5735 95.6144 41.2673 94.1814C41.9724 92.737 42.9846 91.5997 44.304 90.7694C45.6233 89.9278 47.2098 89.507 49.0637 89.507C50.292 89.507 51.4237 89.6889 52.4586 90.0529C53.4936 90.4168 54.4433 90.9571 55.3077 91.6736L53.5505 94.079C52.8453 93.59 52.1231 93.2204 51.3839 92.9701C50.656 92.7086 49.9053 92.5778 49.1319 92.5778C47.7103 92.5778 46.5445 93.1009 45.6346 94.1473C44.7361 95.1936 44.2869 96.8371 44.2869 99.0776C44.2869 100.579 44.4916 101.79 44.9011 102.711C45.3219 103.621 45.8962 104.287 46.6241 104.707C47.352 105.117 48.1823 105.322 49.1149 105.322ZM74.6574 103.581C74.6574 104.287 74.7655 104.804 74.9816 105.134C75.1977 105.452 75.5445 105.691 76.0222 105.85L75.1692 108.444C74.2821 108.341 73.5201 108.097 72.8832 107.71C72.2463 107.323 71.7629 106.738 71.4331 105.953C70.7734 106.783 69.9375 107.409 68.9253 107.829C67.913 108.25 66.8326 108.461 65.6839 108.461C63.8641 108.461 62.4197 107.949 61.3506 106.925C60.2929 105.89 59.764 104.537 59.764 102.865C59.764 100.966 60.5033 99.5041 61.9818 98.4805C63.4604 97.4569 65.5758 96.9451 68.3282 96.9451H70.9042V95.768C70.9042 94.6079 70.5517 93.772 69.8465 93.2602C69.1527 92.7484 68.1689 92.4925 66.8951 92.4925C66.3037 92.4925 65.5872 92.5721 64.7456 92.7313C63.9039 92.8792 63.0225 93.1123 62.1013 93.4308L61.163 90.7353C62.2889 90.3145 63.3921 90.0074 64.4726 89.814C65.5531 89.6093 66.5539 89.507 67.4752 89.507C69.8863 89.507 71.6833 90.0415 72.8661 91.1106C74.0603 92.1797 74.6574 93.6582 74.6574 95.5462V103.581ZM66.8439 105.646C67.6173 105.646 68.3737 105.441 69.1129 105.032C69.8522 104.622 70.4493 104.048 70.9042 103.309V99.3335H68.7888C66.9918 99.3335 65.7066 99.6349 64.9332 100.238C64.1598 100.829 63.7731 101.648 63.7731 102.694C63.7731 103.65 64.029 104.383 64.5408 104.895C65.064 105.396 65.8317 105.646 66.8439 105.646ZM90.1346 89.507C91.7268 89.507 93.0007 89.8993 93.956 90.6841C94.9114 91.4575 95.6051 92.555 96.0373 93.9767C96.4695 95.387 96.6856 97.0475 96.6856 98.9582C96.6856 100.789 96.424 102.421 95.9009 103.854C95.3777 105.287 94.5986 106.413 93.5636 107.232C92.54 108.051 91.2662 108.461 89.7422 108.461C87.8542 108.461 86.3302 107.795 85.1701 106.465V114.926L81.3487 115.353V89.9846H84.6754L84.9142 92.3048C85.5966 91.3722 86.3871 90.6727 87.2856 90.2064C88.1954 89.7401 89.1451 89.507 90.1346 89.507ZM89.0769 92.4583C88.2239 92.4583 87.4732 92.7142 86.8249 93.226C86.1767 93.7378 85.625 94.3406 85.1701 95.0344V103.462C85.6023 104.11 86.1141 104.611 86.7055 104.963C87.3083 105.305 87.985 105.475 88.7357 105.475C90.0208 105.475 90.999 104.958 91.67 103.923C92.341 102.888 92.6765 101.239 92.6765 98.9753C92.6765 97.4399 92.54 96.1945 92.2671 95.2391C92.0055 94.2724 91.6074 93.5672 91.0729 93.1237C90.5497 92.6801 89.8844 92.4583 89.0769 92.4583ZM104.981 100.221C105.06 101.449 105.322 102.455 105.765 103.24C106.209 104.014 106.789 104.582 107.505 104.946C108.233 105.31 109.029 105.492 109.894 105.492C110.781 105.492 111.6 105.356 112.35 105.083C113.101 104.81 113.857 104.423 114.619 103.923L116.274 106.209C115.433 106.891 114.449 107.437 113.323 107.846C112.197 108.256 110.991 108.461 109.706 108.461C107.841 108.461 106.26 108.063 104.963 107.266C103.678 106.47 102.7 105.361 102.029 103.94C101.358 102.518 101.023 100.875 101.023 99.0094C101.023 97.201 101.352 95.586 102.012 94.1643C102.672 92.7313 103.616 91.5997 104.844 90.7694C106.072 89.9278 107.54 89.507 109.246 89.507C110.849 89.507 112.225 89.8709 113.374 90.5988C114.534 91.3267 115.427 92.3617 116.052 93.7037C116.689 95.0344 117.008 96.638 117.008 98.5146C117.008 98.8217 116.996 99.1288 116.974 99.4359C116.962 99.7316 116.945 99.9932 116.923 100.221H104.981ZM109.28 92.3389C108.085 92.3389 107.096 92.7654 106.311 93.6184C105.538 94.4714 105.089 95.8021 104.963 97.6105H113.306C113.272 95.9158 112.908 94.6136 112.214 93.7037C111.532 92.7939 110.553 92.3389 109.28 92.3389ZM120.935 114.244V111.088H137.995V114.244H120.935ZM158.335 91.2641C158.335 92.4242 158.096 93.4364 157.618 94.3008C157.152 95.1538 156.509 95.8647 155.69 96.4333C154.883 97.002 153.979 97.4399 152.978 97.7469L159.648 108H155.042L149.122 98.3099H146.546V108H142.588V84.4572H149.156C152.182 84.4572 154.468 85.0259 156.014 86.1632C157.561 87.2892 158.335 88.9895 158.335 91.2641ZM154.189 91.2641C154.189 89.8993 153.791 88.9155 152.995 88.3128C152.21 87.6986 151.004 87.3915 149.378 87.3915H146.546V95.4097H149.463C150.976 95.4097 152.142 95.0913 152.961 94.4544C153.78 93.8061 154.189 92.7427 154.189 91.2641ZM170.4 89.507C172.163 89.507 173.647 89.8993 174.852 90.6841C176.058 91.4689 176.968 92.5664 177.582 93.9767C178.208 95.387 178.52 97.0475 178.52 98.9582C178.52 100.858 178.202 102.524 177.565 103.957C176.939 105.378 176.018 106.487 174.801 107.283C173.596 108.068 172.123 108.461 170.383 108.461C168.643 108.461 167.164 108.08 165.947 107.318C164.742 106.544 163.82 105.447 163.183 104.025C162.558 102.603 162.245 100.926 162.245 98.9923C162.245 97.1157 162.558 95.4666 163.183 94.0449C163.82 92.6233 164.747 91.5144 165.964 90.7182C167.181 89.9107 168.66 89.507 170.4 89.507ZM170.4 92.4754C169.024 92.4754 167.989 93.0043 167.295 94.062C166.601 95.1083 166.254 96.7518 166.254 98.9923C166.254 101.221 166.595 102.865 167.278 103.923C167.972 104.98 169.007 105.509 170.383 105.509C171.759 105.509 172.788 104.98 173.471 103.923C174.164 102.865 174.511 101.21 174.511 98.9582C174.511 96.7404 174.17 95.1083 173.488 94.062C172.805 93.0043 171.776 92.4754 170.4 92.4754ZM190.858 89.507C192.621 89.507 194.106 89.8993 195.311 90.6841C196.517 91.4689 197.427 92.5664 198.041 93.9767C198.666 95.387 198.979 97.0475 198.979 98.9582C198.979 100.858 198.661 102.524 198.024 103.957C197.398 105.378 196.477 106.487 195.26 107.283C194.054 108.068 192.581 108.461 190.841 108.461C189.101 108.461 187.623 108.08 186.406 107.318C185.2 106.544 184.279 105.447 183.642 104.025C183.017 102.603 182.704 100.926 182.704 98.9923C182.704 97.1157 183.017 95.4666 183.642 94.0449C184.279 92.6233 185.206 91.5144 186.423 90.7182C187.64 89.9107 189.118 89.507 190.858 89.507ZM190.858 92.4754C189.482 92.4754 188.447 93.0043 187.754 94.062C187.06 95.1083 186.713 96.7518 186.713 98.9923C186.713 101.221 187.054 102.865 187.736 103.923C188.43 104.98 189.465 105.509 190.841 105.509C192.218 105.509 193.247 104.98 193.929 103.923C194.623 102.865 194.97 101.21 194.97 98.9582C194.97 96.7404 194.629 95.1083 193.946 94.062C193.264 93.0043 192.235 92.4754 190.858 92.4754ZM216.52 89.507C217.203 89.507 217.817 89.6548 218.363 89.9505C218.909 90.2462 219.335 90.7637 219.642 91.503C219.961 92.2422 220.12 93.2772 220.12 94.6079V108H216.725V95.1368C216.725 94.1928 216.657 93.5161 216.52 93.1066C216.395 92.6972 216.06 92.4925 215.514 92.4925C215.082 92.4925 214.644 92.6289 214.2 92.9019C213.757 93.1635 213.307 93.6184 212.852 94.2667V108H209.765V95.1368C209.765 94.1928 209.696 93.5161 209.56 93.1066C209.435 92.6972 209.099 92.4925 208.553 92.4925C208.11 92.4925 207.666 92.6289 207.223 92.9019C206.79 93.1635 206.347 93.6184 205.892 94.2667V108H202.48V89.9846H205.363L205.619 91.9295C206.131 91.213 206.688 90.6329 207.291 90.1894C207.894 89.7344 208.622 89.507 209.475 89.507C210.157 89.507 210.777 89.6776 211.334 90.0188C211.891 90.36 212.301 90.9571 212.562 91.8101C213.063 91.1277 213.632 90.5761 214.268 90.1552C214.905 89.7231 215.656 89.507 216.52 89.507Z" fill="white"/>
</svg>
